<?xml version="1.0" encoding="UTF-8"?>
<svg id="Layer_2" xmlns="http://www.w3.org/2000/svg" version="1.1" viewBox="0 0 913.8 912.2">
  <!-- Generator: Adobe Illustrator 30.2.1, SVG Export Plug-In . SVG Version: 2.1.1 Build 1)  -->
  <defs>
    <style>
      .st0 {
        fill: #fff;
      }

      .st1 {
        fill: #2baae2;
      }
    </style>
  </defs>
  <g id="Layer_1-2">
    <g>
      <rect class="st1" x="-.5" y="0" width="913.8" height="912.2" rx="70.1" ry="70.1"/>
      <path class="st0" d="M532.9,535v126.6c0,36.9-24.2,60-63.3,60s-63.3-23.2-63.3-60v-100.3h-24.6l20-22.3c2.2-2.5,5.4-3.9,8.7-3.9h122.5,0ZM497,561.2h-57.2c-4,0-7.2,3.2-7.2,7.2v90.9c0,23,14.1,35.7,36.8,35.7s36.8-12.7,36.8-35.7v-88.9c0-5.1-4.1-9.2-9.2-9.2h0Z"/>
      <path class="st0" d="M780.1,733.7v-330.7c0-223.7-115.7-361.1-322.1-361.1S135.9,180.9,135.9,404.6v355.5c0,27.8,22,50.6,49.8,51.5,187.5,6.4,375,33.7,562.5,38.5,16.3.4,29.8-12.5,30.2-28.8.6-29.2,1.2-58.4,1.8-87.7h0ZM681.1,786.9c-142.1-2.6-284.2-22.4-426.4-26.4-26.6-.8-47.9-22.6-47.8-49.2.1-102.1.2-189.2.4-296.6v-1.9c-1.2-18.7-5.4-133,81.2-213,68.7-63.4-7.8,83.1,16.4,83.1s254.5-147.2,316.8-96.5c96.4,78.4,90.2,208.7,88.9,226.4v2.1c.2,114.2.4,228.4.6,342.6,0,16.5-13.4,29.8-29.9,29.5h-.2Z"/>
      <path class="st0" d="M555.1,270.5c-38.2,0-59.6,24.9-59.6,65.4v59.9h0v25.7h119.2v-85.3c0-40.5-21.4-65.6-59.6-65.6h0ZM593.5,395.7h-14.3c-1.1-8.6-3.2-18.3-7.7-26-6.5-11-14-11.2-16.7-11.2s-10.1,0-16.6,11.1c-5.5,9.5-7.3,21.6-7.8,26.1h-14.3v-60.2c0-21.8,17.6-39.8,39.4-39.5,25.6.3,38.1,15.8,38.1,41.6v58.1h-.1Z"/>
      <path class="st0" d="M349.6,382.5c-7.3,0-22.8,1-38.6,7.3-13.2,5.3-17.5,10.9-18.8,12.6-1.2,1.5-3.3,4.7-3.5,9-.2,4.9,2.3,8.5,3.5,10.1h117.8c.5-.4,1.8-1.5,2.8-3.2,0,0,1.9-2.9,2-6.5,0-6.6-8.5-13.8-9.5-14.6-12.6-10.3-29.5-13-34.9-13.8-8.6-1.3-16-1.1-20.8-.8h0Z"/>
    </g>
  </g>
</svg>