<?xml version="1.0" encoding="UTF-8"?>
<svg id="Layer_1" data-name="Layer 1" xmlns="http://www.w3.org/2000/svg" viewBox="0 0 1080 1080">
  <defs>
    <style>
      .cls-1 {
        fill: #1e4769;
      }

      .cls-2 {
        fill: #1f2833;
      }

      .cls-3 {
        fill: #f4f6f8;
      }

      .cls-4 {
        fill: #3177b1;
      }

      .cls-5 {
        opacity: .3;
      }

      .cls-6 {
        fill: #5a9fd6;
      }

      .cls-7 {
        fill: #126994;
      }

      .cls-8 {
        fill: #8bc1ea;
      }
    </style>
  </defs>
  <path class="cls-4" d="M805.06,868.98l-15.59,10.86c.9-6.02.5-14.3,4.42-19.68,4.47-1.87,10.52,4.57,11.17,8.82Z"/>
  <path class="cls-7" d="M718.47,241.36c14.81,16.43,30.21,31.6,54.54,33.13-11.96,7.84-25.31,9.48-37.78,6.5,0,0,30.72,36.74,53.83,38.91-12.02,11.5-26.5,13.54-40.53,16.34-7.77-2.36-18.84.67-28.49-6.89-.24,5.89-.79,13.77-2.13,23-.96,6.59-2.07,14.3-4.77,23.52-2.15,7.35-5.87,17.59-12.58,29.15.14,3.76-2.09,9.88-2.33,13.12-4.61.09-3.55,7.38-7.76,5.58-.38-9.42.19-18.81-.78-28.68-2.97-30.13-21.27-66.25-46.39-83.28-7.22,29.31-27.36,52.98-56.04,62.51,8.94-20.77,11.81-41.75,6.01-62.77-7.75,25.47-21.83,45.67-43.8,58.74-18.19,9.99-37,17.56-58.69,19.03,11.13-17.56,19.12-35.49,19.65-55.98l-13.42,14.8c-23.32,25.72-55.11,41.78-88.63,51.69-9.22,2.72-15.59,8.34-18.96,17.56-4.86,13.29-1.42,26.62-7.2,26.09-6.27-18.63-9.32-38.21-13.26-58.15-2.68-13.6-7.86-30.06-22.37-35.31-.75-20.9,3.33-41.23,10.83-60.89,13.31-34.86,36.54-62.58,67.74-82.68,16.98-10.94,34.51-19.38,53.29-25.18,4.06-1.25,13.89-4.12,27.54-6.41,22.45-3.76,68.23-11.44,119.98,6.63,30.77,10.74,54.47,27.38,66.42,37.18,17.41,14.29,26.07,22.72,26.07,22.72Z"/>
  <g>
    <path class="cls-2" d="M721.64,244.83c1.34-1.18-11.29-21.72-30.61-39.76-32.66-30.48-69.93-40.26-91.14-45.57-41.14-10.29-75.77-7.74-94.49-5.19-15.55,2.12-58.91,8.47-99.24,35.81-76.28,51.7-89.54,143.09-91.78,160.92l-4.4,3.31c-11.76,8.85-21.55,20.12-21.42,36.1.2,24.2,5.05,48.27,14.71,70.23,6.58,14.96,18.7,24.9,34.1,26.91,9.97,3.8,21.83,3.92,31.33-1.02,7.28-.34,13.07-5.56,17.41-12.13,2.03.11,3.14,1.59,4.46,2.37.37-.84,1.59-2.4.81-4.01-4.65-9.66-5.98-19.88-9.17-29.36-6.27-18.63-9.32-38.21-13.26-58.15-2.68-13.6-7.86-30.06-22.37-35.31-.75-20.9,3.33-41.23,10.83-60.89,13.31-34.86,36.54-62.58,67.74-82.68,16.98-10.94,34.51-19.38,53.3-25.18,1.68-.52,13.38-4.07,27.54-6.41,63.27-10.49,120.02,8.77,120.02,8.77,15.11,4.85,36.06,13.35,57.71,28.9,22.69,16.3,36.61,33.48,37.9,32.34ZM544.4,157.68c-3.26.06-6.51.18-9.74.36,3.24-.18,6.48-.31,9.74-.36,6.84-.12,13.85.12,20.94.7-7.09-.58-14.1-.82-20.94-.7ZM576.02,159.5c3.57.46,7.16,1,10.74,1.62-3.58-.62-7.17-1.16-10.74-1.62Z"/>
    <path class="cls-2" d="M771.2,362.62c-3.3-4.03-7.31-7.14-7.31-7.14-5.47-4.24-10.87-6.38-14.53-7.51-.33-1.49-.84-11.72-.84-11.72-7.77-2.36-18.84.67-28.49-6.89-.25,3.89-10.6,58.98-19.48,75.67.14,3.76-2.09,9.88-2.33,13.12-1.78,24.02-8.81,36.12-12.24,57.74,5.85,4.75,11.51,10.57,19.27,10.71,6.75,1.92,18.13,4.01,31.14.79,4.62-1.14,11.58-2.94,18.24-8.5,6.97-5.81,10.13-12.8,12.11-17.76,13.64-34.17,16.07-84.3,4.44-98.5Z"/>
  </g>
  <path class="cls-6" d="M698.23,418.15c-1.78,24.02-8.81,36.12-12.24,57.74-3.42,5.53-4.66,11.89-7.42,18.55-15.86,38.3-39.49,64.12-75.22,83.3-43.54,17.31-90.99,18.36-133.37-2.47-39.99-19.65-61.06-52.43-75.94-93.73-.67-1.87-3.57-2.81-3.47-4.72.37-.84,1.59-2.4.81-4.01-4.65-9.66-5.98-19.88-9.17-29.36,5.78.53,2.34-12.79,7.2-26.09,3.37-9.22,9.74-14.84,18.96-17.56,33.53-9.91,65.31-25.97,88.63-51.69l13.42-14.8c-.53,20.49-8.52,38.42-19.65,55.98,21.68-1.46,40.5-9.03,58.69-19.03,21.97-13.07,36.05-33.27,43.8-58.74,5.81,21.02,2.94,42-6.01,62.77,28.68-9.53,48.82-33.19,56.04-62.51,25.12,17.03,43.43,53.15,46.39,83.28.97,9.87.4,19.26.78,28.68,4.21,1.8,3.15-5.49,7.76-5.58Z"/>
  <path class="cls-6" d="M603.08,563.66c.23,3.69,2.08,7.92,2.93,11.97,1.48,7.08,6.3,12.22,12.83,14.8,10.86,4.28,21.46,8.05,32.28,10.88-2.04,9.03-7.03,17.44-14.95,23.32-40.59,30.16-104.6,34.38-152.35,21.44-22.2-6.01-55.82-20.89-60.94-44.78,10.19-2.66,36.09-9.39,42.22-18.02,4.05-5.69,6.22-13.1,5.9-19.66,1.44.04,2.72.91,3.88,2.22,30.14,34.03,88.27,36.99,121.84,3.51,2.25-2.24,3.12-5.8,6.36-5.69Z"/>
  <path class="cls-6" d="M603.36,545.7c1.01,5.94-.65,12.02-.27,17.96-3.25-.11-4.12,3.45-6.36,5.69-33.57,33.48-91.7,30.52-121.84-3.51-1.16-1.31-2.45-2.19-3.88-2.22l-1.01-20.38c42.38,20.83,89.83,19.78,133.37,2.47Z"/>
  <path class="cls-1" d="M743.85,801.83l-.04,5.87-52.74-6c1.55-1.51,2.36-3.59,2.17-5.74,17.05-.18,34.38.85,50.62,5.88Z"/>
  <path class="cls-1" d="M667.87,872.34l.24-2.04c7.83-.06,59.43,9.48,62.86,13.18,5.74,6.18-59.16-10.07-63.1-11.13Z"/>
  <path class="cls-1" d="M681.53,835.73l-.04,1.98c-7.05-.91-13.96-1.34-20.73-3.02l.19-1.83c6.9.7,13.74,1.82,20.58,2.87Z"/>
  <path class="cls-4" d="M743.81,807.7l.04-5.87c.48.15,23.73,4.73,21.79,9.46-.31.76-1.22.55-2.22.35l-19.61-3.95Z"/>
  <path class="cls-4" d="M681.5,837.72l.04-1.98,31.25,4.8c-3.98,2.43-8.09.2-12.38-.36l-18.91-2.45Z"/>
  <path class="cls-7" d="M404.73,606.99c6,20.08,22.07,33.69,40.85,43.55,34.32,18.02,71.86,22.54,110.3,19.69,27.27-2.02,52.78-8.53,76.52-21.68,14.79-8.2,34.85-24.9,37.11-41.52,26.13,5.72,51.93,14.09,77.53,23,27.02,9.4,46.07,28.65,58.49,53.85,10.61,21.54,19.4,42.99,28.13,65.27l11.13,28.41,15.58,42.18c-4.24,10.12-30.64,30.25-39.68,37.2-3.31.96-6.62,1.91-9.94,2.87,2.12-9.49,4.35-20.71,2.96-21.14-1.9-.59-8.51,19.79-14.82,31.61-24.69,46.23-104.37,72.95-127.73,49.77-17.67-17.54-5.95-66.48,25.99-116.82-1.35-2.23-10.46-17.7-4.4-32.02,6.87-16.24,31.05-25.85,55.69-16.24l.25-38.56c.03-4.36.73-9.62-1.07-13.22,5.14-12.71-13.11-29.99-26.02-29.97,6.13,86.68,12.26,173.35,18.38,260.03-34.24,16.58-207.29,96.31-364.17,16.54-30.45-15.48-56.03-34.81-77.41-55.45-16.08-64.8-20.45-81.76-20.61-81.71-.08.02.74,3.78,1.44,9.64.27,2.28.46,5,.41,8.22-.05,2.95-.28,6-.76,9.24l-23.22,15.16c-15-10.07-26.72-23.81-39.45-36.36,14.01-45.32,31.23-89.53,51.78-132.76,12.93-27.21,33.76-47.7,62.52-57.09,24.86-8.12,49.23-16.36,74.23-21.72Z"/>
  <path class="cls-8" d="M422.88,601.29c5.12,23.89,38.74,38.76,60.94,44.78,47.74,12.93,111.75,8.71,152.35-21.44,7.92-5.88,12.91-14.29,14.95-23.32,6.2,1.62,12.78,2.56,18.39,5.73-2.26,16.62-22.32,33.32-37.11,41.52-23.73,13.15-49.24,19.66-76.52,21.68-38.44,2.85-75.99-1.68-110.3-19.69-18.77-9.86-34.85-23.47-40.85-43.55,5.51-3.13,12.06-4.11,18.15-5.7Z"/>
  <rect class="cls-2" x="264.17" y="595.5" width="574.02" height="360.08" rx="30.27" ry="30.27"/>
  <rect class="cls-6" x="292.12" y="622.75" width="73.5" height="29.99" rx="15" ry="15"/>
  <circle class="cls-3" cx="316.58" cy="637.6" r="9.28"/>
  <circle class="cls-3" cx="341.17" cy="637.9" r="9.28"/>
  <path class="cls-6" d="M896.5,877.86c-10.35,8.65-22.22,17.68-35.69,26.59-10.86,7.18-68.65,35.65-107.63,5.82-19.86-15.19-28.59-40.9-27.5-62.93.97-19.55,10.27-48.23,30.11-55.39,8.2-2.96,15.32-3.26,30.11-2.56,26.33,1.25,46.07,9.25,57.73,14.09,14.94,6.2,27.5,13.62,32.8,16.77,1.13.67,5.93,3.55,12.42,7.82,15.44,10.16,27.37,19.68,35.51,26.6-9.28,7.73-18.57,15.45-27.85,23.18Z"/>
  <path class="cls-6" d="M178.53,773.33c12.36-8.92,26.57-19.19,37.71-25.3,6.37-3.49,65.1-35.72,104.24-6.8,19.1,14.11,28.38,39.17,27.23,62.32-1,20.27-11.27,44.33-29.82,54.86-1.2.68-11.08,4.19-30.85,11.21-12.22,4.34-15.95,5.55-21.12,5.67-12.58.28-22.71-6.2-28.74-11.07-19.41-11.6-34.05-21.93-44.11-29.47-3.18-2.38-7.23-5.5-15.33-11.73-13.4-10.31-24.34-18.81-31.78-24.61,7.56-6.2,18.67-15.04,32.58-25.08Z"/>
  <path class="cls-2" d="M540.23,1040.9c-68.6,0-135.17-13.44-197.86-39.96-60.53-25.6-114.89-62.25-161.56-108.92-46.67-46.67-83.31-101.02-108.92-161.55-26.52-62.69-39.96-129.26-39.96-197.86s13.45-135.17,39.96-197.86c25.6-60.53,62.25-114.89,108.92-161.55,46.67-46.67,101.02-83.31,161.56-108.92,62.69-26.52,129.26-39.96,197.86-39.96s135.17,13.44,197.86,39.96c60.53,25.6,114.89,62.25,161.56,108.92,46.67,46.67,83.31,101.02,108.91,161.55,26.52,62.69,39.96,129.26,39.96,197.86s-13.45,135.17-39.96,197.86c-25.6,60.53-62.25,114.89-108.91,161.55-46.67,46.67-101.02,83.31-161.56,108.92-62.69,26.52-129.26,39.96-197.86,39.96ZM540.23,106.62c-113.78,0-220.76,44.31-301.21,124.77-80.46,80.46-124.77,187.43-124.77,301.21s44.31,220.76,124.77,301.21c80.46,80.46,187.43,124.77,301.21,124.77s220.76-44.31,301.21-124.77c80.46-80.46,124.77-187.43,124.77-301.21s-44.31-220.76-124.77-301.21c-80.46-80.46-187.43-124.77-301.21-124.77Z"/>
  <g class="cls-5">
    <circle class="cls-6" cx="604.27" cy="797.27" r="15.22"/>
    <circle class="cls-6" cx="604.76" cy="756.96" r="15.22"/>
    <circle class="cls-6" cx="475.7" cy="794.12" r="15.22"/>
    <circle class="cls-6" cx="476.19" cy="753.8" r="15.22"/>
    <circle class="cls-6" cx="517.81" cy="794.12" r="15.22"/>
    <circle class="cls-6" cx="518.3" cy="753.8" r="15.22"/>
    <circle class="cls-6" cx="561.28" cy="796.14" r="15.22"/>
    <circle class="cls-6" cx="561.77" cy="755.83" r="15.22"/>
  </g>
</svg>