<?xml version="1.0" encoding="UTF-8"?>
<svg id="Layer_1" data-name="Layer 1" xmlns="http://www.w3.org/2000/svg" viewBox="0 0 1080 1080">
  <defs>
    <style>
      .cls-1 {
        fill: #1f2833;
      }

      .cls-2 {
        fill: #53a9c6;
      }

      .cls-3 {
        fill: #f4f6f8;
      }

      .cls-4 {
        fill: #124464;
      }

      .cls-5 {
        fill: #126994;
      }
    </style>
  </defs>
  <path class="cls-1" d="M1048.3,532.6c0,280.72-227.57,508.3-508.3,508.3S31.7,813.33,31.7,532.6,259.28,24.31,540,24.31s508.3,227.57,508.3,508.3ZM248.75,845.56c30.76,28.32,65.49,52,103.09,70.3,108.16,52.62,233.41,57.52,345.35,13.5s200.3-132.93,243.64-245.13c78.05-202.08-6.47-430.66-197.23-533.34-190.75-102.67-428.1-47.35-553.79,129.09-125.69,176.44-100.43,418.84,58.94,565.57Z"/>
  <path class="cls-5" d="M940.82,684.23c-43.34,112.2-131.71,201.11-243.64,245.13s-237.19,39.12-345.35-13.5c.17-2.35-.58-4.9-1.23-8.05l-19.47-94.09c-.91-4.41-3.37-10.47-1.22-14.56,6.87-13.11,13-26.09,13.69-40.41l63.85-8.78c16.39-2.25,20.26-17.72,17.28-31.87l-29.77-141.18c36.67-13.4,73.16-27.89,110.51-39.02-.33,5.85-.32,11.99.45,18.23,3.41,27.53,28.38,39.51,53.95,40.72,41.83,1.98,82.85-13.27,113.29-41.74,8.24-7.71,15.41-15.53,20.16-24.9,47.84,12.3,94.94,27.87,141.76,44.91,39.52,14.38,80.9,35.07,95.11,78.55l10.65,30.54Z"/>
  <path class="cls-1" d="M407.33,753.31l-104.57,12.84c-13.11,1.61-25.03-8.93-26.49-23.42l-21.23-211.32c-1.46-14.49,8.08-27.67,21.19-29.28l104.57-12.84c13.11-1.61,25.03,8.93,26.49,23.42l21.23,211.32c1.46,14.49-8.08,27.67-21.19,29.28Z"/>
  <g>
    <path class="cls-5" d="M307.34,569.66c-6.5.86-12.22,1.86-18.45,2.08-5.79.21-11.95-3.55-13.3-10.2-1.9-9.34-3.12-18.46-3.96-27.81-.62-6.95,3.31-13.45,9.62-14.46,6.81-1.09,13.6-2.19,20.32-2.41s11.34,5.21,12.3,11.88l3.64,25.32c1.09,7.59-2.77,14.61-10.17,15.59ZM293.17,531.35c-1.06-4.74-5.39-7.63-9.67-6.45-4.28,1.17-6.89,5.96-5.83,10.7,1.06,4.74,5.39,7.63,9.67,6.45,4.28-1.17,6.89-5.96,5.83-10.7ZM309.76,529.51c-.78-3.47-3.95-5.58-7.08-4.72s-5.04,4.36-4.27,7.83c.78,3.47,3.95,5.58,7.08,4.72s5.04-4.36,4.27-7.83ZM296.28,554.48c-1.07-4.77-5.42-7.67-9.73-6.49s-6.93,6-5.87,10.76,5.42,7.67,9.73,6.49,6.93-6,5.87-10.76Z"/>
    <path class="cls-4" d="M296.28,554.48c1.07,4.77-1.56,9.58-5.87,10.76s-8.66-1.73-9.73-6.49,1.56-9.58,5.87-10.76,8.66,1.73,9.73,6.49Z"/>
    <path class="cls-4" d="M293.17,531.35c1.06,4.74-1.55,9.53-5.83,10.7-4.28,1.17-8.61-1.72-9.67-6.45-1.06-4.74,1.55-9.53,5.83-10.7,4.28-1.17,8.61,1.72,9.67,6.45Z"/>
  </g>
  <path class="cls-2" d="M343.69,760.27c-.68,14.18-6.76,27.03-13.55,40.02-2.12,4.05.31,10.06,1.21,14.42l19.28,93.18c.64,3.12,1.38,5.64,1.21,7.97-37.24-18.12-71.63-41.57-102.09-69.62.47-.4.82-1.96,1-3.75l4.3-43.54c.55-5.6-.08-10.33-1.84-15.55l-19.49-57.74c-9.32-27.62-5.24-50.86,17.76-69.05,1.85-1.46,8.69-5.81,11.11-7.1,24.99-13.32,72.25-19.9,81.63,12.42,4.06,14,6.87,27.94,8.64,42.36,3.72,30.26-31.77,62.16-31.89,59,7.52-1.89,15.24-1.99,22.72-3.02Z"/>
  <path class="cls-5" d="M664.13,433.38c-1.21-12.24-7.17-24.47-7.31-37.38,15.62-13.18,27.92-30.33,30.41-51.02,1.32-10.99-.52-23.04-8.63-30.51-11.29-10.4-28.16-6.13-36.83,5.78-5.08,6.99-7.16,14.75-9.89,22.46-3.88-6.46-.04-14.69-1.8-22.46-4.26-3.42-8.72-6.87-13.78-9.8-3.76-7.17-9.78-12.95-15.07-19.66-17.67-22.38-14.96-38.05-11.86-64.97l-61.98,17.84c-27.36,7.88-55.15,10.37-84.24,9.57-.41-.02-.84-.05-1.28-.09-.71-.06-1.39-.15-2.03-.25l-12.13-2.09-7.4,25.01c-7.53-12.77-27.39-41.52-18.31-56.54,3.52-5.82,9.48-8.64,14.93-13.56-7.16-4.53-22.07-19.55-18.54-26.51,34.63-6.35,57.6-21.32,91.37-33.14,57.31-20.06,146-19.8,187.76,31.81,9.24,2.55,16.69,7.3,23.92,13.92,21.97,20.12,32.7,49.52,30.24,79.49-1.32,16.08-5.39,30.36-10.33,45.7-12.39,38.42-30.01,74.04-51.44,108.21-2.03,3.23-2.83,6.66-5.79,8.17Z"/>
  <path class="cls-2" d="M616.31,310.46c-.87,15.51-1.57,31.08-3.66,47.07-1.54,11.76-5.81,21.43-13.5,30.56-16.63,19.75-37.45,35.41-61.31,46.95-7.41-10.16-16.38-16.23-28.16-18.14-15.22-2.47-30.31-2.95-45.37.25-9.71,2.06-17.33,7.23-22.2,16.66-6.17-6.29-8.23-14.27-12.95-20.78-4.71-29.06-7.19-56.83-9.42-85.44-1.39-17.78-.08-34.65.58-51.76l7.4-25.01,12.13,2.09c.61.07,1.23.14,1.86.2.49.05.97.09,1.45.13,29.09.8,56.88-1.7,84.24-9.57l61.98-17.84c-3.1,26.92-5.81,42.59,11.86,64.97,5.3,6.71,11.31,12.49,15.07,19.66Z"/>
  <path class="cls-2" d="M664.13,433.38c2.99,30.26,4.73,74.21,29.17,96.85-4.74,9.36-11.91,17.19-20.16,24.9-30.44,28.47-71.45,43.72-113.29,41.74-25.57-1.21-50.54-13.2-53.95-40.72-.77-6.24-.79-12.38-.45-18.23-.33,5.7,4.49-20.98,2.62-23.88,40.65-4.13,79.21-22.18,107.05-52.48,10.63-11.57,15.37-23.73,15.3-39.27l-.3-66.74c-.02-4.38,1.34-8.19,1.75-12.82,2.73-7.71,4.8-15.47,9.89-22.46,8.67-11.91,25.53-16.18,36.83-5.78,8.11,7.47,9.95,19.51,8.63,30.51-2.49,20.68-14.79,37.84-30.41,51.02.15,12.9,6.1,25.14,7.31,37.38Z"/>
  <path class="cls-1" d="M631.89,342.72c-.41,4.63-1.77,8.44-1.75,12.82l.3,66.74c.07,15.54-4.67,27.7-15.3,39.27-27.83,30.29-66.39,48.35-107.05,52.48-11.85,1.2-23.09.52-33.89-2.03-13.58-3.21-23.04-12.02-27.83-25.16-8.75-24.02-13.19-49-17.21-73.81,4.73,6.51,6.78,14.49,12.95,20.78,4.86-9.43,12.48-14.6,22.2-16.66,15.06-3.2,30.15-2.73,45.37-.25,11.78,1.92,20.75,7.98,28.16,18.14,23.86-11.53,44.68-27.19,61.31-46.95,7.69-9.13,11.96-18.8,13.5-30.56,2.1-15.98,2.79-31.55,3.66-47.07,5.06,2.93,9.52,6.38,13.78,9.8,1.76,7.77-2.08,15.99,1.8,22.46Z"/>
  <path class="cls-3" d="M669.91,355.73c2.09-6.39-1.4-13.26-7.79-15.34s-13.26,1.4-15.34,7.79c-.9,2.75-.76,5.59.2,8.09l-11.17,21.71c-1.87,3.63-.43,8.13,3.21,10l1.22.63c3.63,1.87,8.13.43,10-3.21l11.16-21.69c3.88-1.01,7.18-3.9,8.52-7.99Z"/>
</svg>