<?xml version="1.0" encoding="UTF-8"?>
<svg id="Layer_1" data-name="Layer 1" xmlns="http://www.w3.org/2000/svg" viewBox="0 0 1080 1080">
  <defs>
    <style>
      .cls-1 {
        fill: #50a7dd;
      }

      .cls-2 {
        fill: #1f2833;
      }

      .cls-3 {
        fill: #68aee0;
      }

      .cls-4 {
        fill: #f4f6f8;
      }

      .cls-5 {
        fill: #124464;
      }

      .cls-6 {
        fill: #126994;
      }

      .cls-7 {
        fill: #fcfcfc;
      }

      .cls-8 {
        fill: #216997;
      }
    </style>
  </defs>
  <path class="cls-3" d="M985.15,658.67c-.1,2.88-.37,5.97-.37,5.97,0,0,0,0,0,0-1.05,11.95-2.76,23.61-6.13,35.24-5.76,19.85-10.52,39.67-20.53,57.89-12.24,22.29-25.84,42.96-41.1,62.97-9.56,12.53-25.57,28.85-37.3,40.01-27.8,26.47-59.59,47.96-93.39,66.15-4.7,2.53-8.83,4.53-13.61,4.42-7.49-13.04-24.91-51.94-40.32-58.23,23.58,40.07,15.82,22.71,14.82,54.97-35.95-.41-55.48-38.22-61.85-70.1-4.57-22.83-6.67-42.23-4.72-82.72,1.29-26.8,4.27-48.9,6.78-64.19,55.39,6,96.41,23.51,111.2,39.48,8.33,8.99,15.1,19.37,15.1,19.37,7.84,12.01,11.16,20.99,15.15,29.66,4.66,10.12,12.3,24.35,25.09,40.66,9.42-26.87,13.62-53.81,18.37-80.58,11.9.75,23.84-10.39,29.29-19.35-8.26-6.14-21.12-15.22-37.69-24.97-26.16-15.39-34.06-14.6-41.04-24.48-14.58-20.65-2.28-52.48,3.94-68.61,8.44-21.86,18.51-47.93,44.06-55.08,29.91-8.36,57.26,15.86,60.19,18.54.04.04,12.59,10.18,16.84,13.77,31.67,26.76,37.29,56.89,37.2,59.18Z"/>
  <path class="cls-6" d="M702.89,574.03c.71-41.15-2.71-73.92-6.1-96.79-6.2-41.75-16.13-76.22,2.31-109.63,3.25-5.89,6.6-10.34,8.88-13.12-2.06-11.42-27.91-22.27-38.85-25.62-21.08-6.46-23.09-9.81-43.88-3.94-1.24-3.67-4.49-6.37-7.95-9.39-25.85-22.5-55.51-39.9-88.51-52.8-5.01,50.88-22.07,101.57-68.15,129.77,7.26-25.43,11.7-49.42,10.68-75.4-16.51,47.55-50.39,84.99-87.19,117.06-34.07,13.55-66.32,30.98-94.65,55.23-2.59,2.22-3.78,4.79-2.2,7.89l11.48,22.54,12.19-3.65,21.41,23.25c-10.71,21.5,4.61,51.7,23.91,63.73,2.85,1.78,5.63,3.11,8.59,2.77.83-.26,15.35-4.5,26.77,5.51,10.01,8.77,9.44,21.3,9.34,22.79,0,0,2.05-2.02,2.6-5.57,1.66-10.73-60.75-56.24-78.99-69.37,25.79,13.38,51.59,26.76,77.38,40.14,34.47,32.84,79.75,49.71,127.23,49.35.44,10.14-3.81,18.15-5.98,26.72-2.61,1.14-2.66,5.31-5.44,6.9-47.89,27.43-128.12,24.3-178.54,3.02-15.61-6.74-29.04-14.51-41.03-26.23-17.69-17.96-26.55-41.3-26.54-67.96-36.34,12.14-75.47,6.6-107.32-15.89,45.23-8.98,74.76-39.93,93.82-81.71-34.55,21.91-77.32,25.33-115.77,10.89,38.8-15.8,62.17-44.82,81.05-81.37,11.57-23.89,20.65-48.06,27.9-73.78,6.68-23.7,15.56-45.36,28.91-66.1,16.82-26.11,36.76-49.08,60.87-68.69,57.45-46.72,138.59-60.14,207.34-29.55,38.51-12.71,81.75,4.05,112.7,26.87,32.98,24.31,51.83,52.26,65.25,75.21,17.91,30.62,26.79,59.03,31.48,78.92,4.33,20.75,9.96,61.49-2.82,110.14-12.89,49.06-38.14,81.95-52.18,97.87Z"/>
  <path class="cls-7" d="M772.73,931.33c1.25,3.72-24.35,12.94-27.08,14.12.48-5.77,1.4-11.58,1.58-17.37,1.01-32.26,8.77-14.91-14.82-54.97,15.4,6.28,32.83,45.18,40.32,58.23Z"/>
  <path class="cls-6" d="M687.83,718.58c-5.23,18.03-6.02,37.08-7.17,56.68-1.63,28.02-.76,55.33,4.72,82.72,6.38,31.88,25.9,69.69,61.85,70.1-.18,5.8-1.1,11.6-1.58,17.37-61.06,26.47-127.44,39.62-194.85,39.84-73.1.24-144.44-17.31-209.59-49.22-2.72-1.33-4.64-2.63-5.84-4.36,6.61-31.82,15.87-62.97,28.69-93.48l37.57-89.44,30.17-9.68-6.41,21.23c-6.36,21.07-7.87,53.86,7.97,71.22,27.28,29.92,82.61,30.44,119.21,22.27,72.04-16.08,106.05-79.74,120.63-145.84,4.03,2.01,9.38,1.34,14.24,3.07,0,2.16,1,5.39.39,7.5Z"/>
  <path class="cls-3" d="M401.62,748.79l-37.57,89.44c-12.82,30.51-22.07,61.66-28.69,93.48-18.36-5.94-33.68-18.88-49.66-29.27,7.52-25.3,17.64-49.61,28.49-74.33,16.63-37.93,48.62-66.86,87.43-79.31Z"/>
  <path class="cls-6" d="M809.47,506.09c-13.2-1.64-24.93-2.66-37.31-5.3-11.52-2.45-22-12.17-21.73-24.69.38-17.6,2-34.45,4.49-51.56,1.84-12.7,12.46-22.39,25.36-21.1,13.92,1.39,27.78,2.74,41.14,5.63,12.99,2.81,20.06,14.83,19.01,27.21l-4.01,46.95c-1.2,14.08-11.91,24.72-26.94,22.85ZM798.46,430.82c0-8.97-7.26-16.24-16.22-16.24s-16.22,7.27-16.22,16.24,7.26,16.24,16.22,16.24,16.22-7.27,16.22-16.24ZM831.98,435.64c0-6.56-5.32-11.89-11.87-11.89s-11.87,5.32-11.87,11.89,5.32,11.89,11.87,11.89,11.87-5.32,11.87-11.89ZM794.36,473.6c0-9.02-7.31-16.34-16.32-16.34s-16.32,7.32-16.32,16.34,7.31,16.34,16.32,16.34,16.32-7.32,16.32-16.34Z"/>
  <ellipse class="cls-5" cx="778.04" cy="473.6" rx="16.32" ry="16.34"/>
  <ellipse class="cls-5" cx="782.24" cy="430.82" rx="16.22" ry="16.24"/>
  <ellipse class="cls-7" cx="820.11" cy="435.64" rx="11.87" ry="11.89"/>
  <path class="cls-3" d="M707.98,354.49c9.66,3.61,15.73,11.34,16.6,12.47,14.5,18.9,13.77,56.81-6.46,80.1-4.93,5.67-10.01,9.32-13.31,11.42,5.55-31.99,5.54-49.02-.04-51.1-2.66-.99-6.58,1.41-11.76,7.2.64,6.22,1.13,12.85,1.39,19.84.26,6.97.27,13.6.09,19.83l-11.72-1.03c3.55,55.17-9.58,102.14-46.58,142.69l5.89,33.79c4.64,26.6,2.07,63.81,31.12,78.3-14.58,66.11-48.6,129.77-120.63,145.84-36.61,8.17-91.93,7.65-119.21-22.27-15.84-17.37-14.32-50.16-7.97-71.22l6.41-21.23,37.83-11.56c27.93-8.53,46.39-23.75,53.58-52.06,2.17-8.57,6.43-16.58,5.98-26.72-47.48.36-92.76-16.51-127.23-49.35l-10.97,7.41c-6.99-7.4-10.1-17.42-13.29-27.44-.92-2.06-6.08-1.15-8-.93-7.37.83-11.48,7.1-9.23,13.79l4.38,13.67c-2.96.35-5.74-.99-8.59-2.77-19.3-12.03-34.62-42.23-23.91-63.73,7.08,7.69,18.55,11.7,28.88,15.66,33.8,12.97,70.48,2.53,93.08-25.52,9.57-11.88,15.72-26.32,15.36-41.42l-1.07-43.71c2.16-8.37,19.3-15.42,27.3-12.25,13.85,14.11,27.91,28.21,46.59,35.68,26.46,10.57,56.2,6.77,79.32-9.48,31.49-22.13,37.6-55.21,30.78-90.5,5.19,5.78,15.21,44.47,16.03,57.34,10.3-18.15,14.18-39.66,7.28-60.78,4.12-5.44,9.75-6.57,14.19-9.95l2.39-.08c.42-.01.8-.63,1.2-.64,5.96-.12,11.29-.41,14.3.72Z"/>
  <path class="cls-8" d="M694.49,454.26c-.62,4.1-1.16,9.51.06,13.71,1.44,4.96,7.22,5.39,11.47,4.65,3.85-.67,5.87-3.54,8.11-7.48l-10.42,107.04c-12.15,28.67-33.57,47.08-61.62,57.52l-5.89-33.79c37-40.54,50.14-87.51,46.58-142.69l11.72,1.03Z"/>
  <path class="cls-2" d="M707.98,354.49c-4.66-1.37-9.48-.81-14.3-.72-.56-.15-1.06.04-1.2.64l-2.39.08c0-2.49-24.04-2.44-28.9-2.63-4.12-.16-10.41.17-12.44,4.1.76,3.35,1.51,9.32,3.85,11.93,6.83,35.29.72,68.37-30.78,90.5-23.12,16.25-52.86,20.05-79.32,9.48-18.68-7.46-32.74-21.57-46.59-35.68-8-3.18-25.14,3.88-27.3,12.25l1.07,43.71c.37,15.1-5.78,29.55-15.36,41.42-22.6,28.05-59.27,38.49-93.08,25.52-10.33-3.96-21.8-7.97-28.88-15.66l-21.41-23.25-12.19,3.65-11.48-22.54c-1.57-3.09-.39-5.67,2.2-7.89,28.33-24.25,60.58-41.68,94.65-55.23,19.6-7.79,40.67-10.91,62.36-9.19,14.11-7.82,27.47-15.07,43.08-19.94,9.79-16.97,23.66-29.71,40.52-39.99,29.89-18.23,61.99-30.74,95.17-40.11,20.79-5.87,22.8-2.53,43.88,3.94,10.94,3.36,36.78,14.2,38.85,25.62Z"/>
  <path class="cls-1" d="M625.26,324.93c-33.17,9.37-65.27,21.88-95.17,40.11-16.86,10.29-30.73,23.02-40.52,39.99-15.62,4.87-28.97,12.11-43.08,19.94-21.68-1.72-42.76,1.4-62.36,9.19,36.81-32.06,70.68-69.51,87.19-117.06,1.01,25.98-3.42,49.97-10.68,75.4,46.08-28.2,63.14-78.88,68.15-129.77,33.01,12.91,62.66,30.31,88.51,52.8,3.47,3.02,6.71,5.72,7.95,9.39Z"/>
  <path class="cls-8" d="M690.09,354.49c-4.43,3.38-10.07,4.51-14.18,9.95,6.9,21.12,3.02,42.63-7.28,60.78-.82-12.87-10.84-51.56-16.03-57.34-2.34-2.61-3.09-8.58-3.85-11.93,2.03-3.92,8.32-4.26,12.44-4.1,4.86.19,28.91.14,28.9,2.63Z"/>
  <path class="cls-8" d="M692.47,354.41c.14-.61.64-.79,1.2-.64-.4,0-.78.63-1.2.64Z"/>
  <path class="cls-2" d="M546.35,1040.9c-68.6,0-135.17-13.44-197.86-39.96-60.53-25.6-114.89-62.25-161.56-108.92-46.67-46.67-83.31-101.02-108.92-161.55-26.52-62.69-39.96-129.26-39.96-197.86s13.45-135.17,39.96-197.86c25.6-60.53,62.25-114.89,108.92-161.55,46.67-46.67,101.02-83.31,161.56-108.92,62.69-26.52,129.26-39.96,197.86-39.96s135.17,13.44,197.86,39.96c60.53,25.6,114.89,62.25,161.56,108.92,46.67,46.67,83.31,101.02,108.91,161.55,26.52,62.69,39.96,129.26,39.96,197.86s-13.45,135.17-39.96,197.86c-25.6,60.53-62.25,114.89-108.91,161.55-46.67,46.67-101.02,83.31-161.56,108.92-62.69,26.52-129.26,39.96-197.86,39.96ZM546.35,106.62c-113.78,0-220.76,44.31-301.21,124.77-80.46,80.46-124.77,187.43-124.77,301.21s44.31,220.76,124.77,301.21c80.46,80.46,187.43,124.77,301.21,124.77s220.76-44.31,301.21-124.77c80.46-80.46,124.77-187.43,124.77-301.21s-44.31-220.76-124.77-301.21c-80.46-80.46-187.43-124.77-301.21-124.77Z"/>
  <rect class="cls-4" x="688.41" y="417.85" width="21.37" height="57.83" rx="9.78" ry="9.78" transform="translate(79.88 -105.42) rotate(9.14)"/>
  <circle class="cls-4" cx="703.08" cy="422.17" r="16.02"/>
  <rect class="cls-4" x="374.1" y="582.18" width="21.37" height="57.83" rx="9.78" ry="9.78" transform="translate(1067.21 847.28) rotate(141.29)"/>
  <circle class="cls-4" cx="369.18" cy="591.66" r="16.02"/>
  <path class="cls-2" d="M935.72,536.96l-4.61,48.76c-3.75-3.5-25.93-23.61-51.81-18.53-24.2,4.74-35.56,28.34-46.7,51.49-7.26,15.09-24.92,51.77-9.68,72.2,6.5,8.71,14.1,7.91,33.16,17.14,21.36,10.34,36.37,23.24,45.57,32.32-1.59,2.92-5.5,8.34-12.23,13.32-5.15,3.81-11.11,6.41-17.06,6.03l-127.99-8.04c-25.71-1.61-41.6-20.92-39.34-46.24l7.74-86.57,18.26-201.15c1.99-21.93,17.03-40.39,41.13-38.13,46.51,4.36,93.46,9.92,139.83,17.5,20.52,3.35,31.94,23.92,30.61,42.81l-6.86,97.11ZM809.47,506.09c15.03,1.87,25.74-8.77,26.94-22.85l4.01-46.95c1.06-12.38-6.01-24.4-19.01-27.21-13.36-2.89-27.22-4.25-41.14-5.63-12.9-1.29-23.52,8.4-25.36,21.1-2.48,17.11-4.1,33.96-4.49,51.56-.27,12.52,10.21,22.24,21.73,24.69,12.38,2.64,24.11,3.66,37.31,5.3Z"/>
</svg>