<?xml version="1.0" encoding="UTF-8"?>
<svg id="Layer_1" data-name="Layer 1" xmlns="http://www.w3.org/2000/svg" xmlns:xlink="http://www.w3.org/1999/xlink" viewBox="0 0 1080 1080">
  <defs>
    <style>
      .cls-1 {
        fill: none;
      }

      .cls-2 {
        fill: #1f2833;
      }

      .cls-3 {
        fill: #146893;
      }

      .cls-4 {
        clip-path: url(#clippath);
      }

      .cls-5 {
        fill: #2baae2;
      }
    </style>
    <clipPath id="clippath">
      <circle class="cls-1" cx="540" cy="540" r="509.07"/>
    </clipPath>
  </defs>
  <g class="cls-4">
    <path class="cls-5" d="M806.52,505.43c-13.87-5.64-30.88-.97-39.62,8.11-7.91,8.22-11.59,24.27-6.58,39.9,8.3,25.88,14.69,51.35,18.81,76.17,2.35,14.15,9.86,44.78.61,77.67-1.88,6.67-17.84,60.63-56.08,72.34-37.35,11.43-64.95-26.95-127.56-58.89-71.27-36.36-137.63-38.7-174.63-40.01-28.65-1.01-156.7-1.87-255.48,79.91-103.49,85.68-142.3,240.11-107.27,394.18,52.77,47.37,169.8,138.94,338.77,165.13,215.54,33.41,379.9-60.57,436.36-96.73,3.01-19.21,26.4-182.36-34.61-326.75,41.58-43.78,76.48-109.16,80.13-187.39,4.09-87.73-32.18-187.1-72.86-203.66Z"/>
    <path class="cls-2" d="M540,1049.07c-68.71,0-135.38-13.46-198.17-40.02-60.63-25.64-115.06-62.34-161.8-109.08-46.74-46.74-83.44-101.18-109.08-161.8-26.56-62.79-40.02-129.46-40.02-198.17s13.47-135.38,40.02-198.17c25.64-60.63,62.34-115.06,109.08-161.8,46.74-46.74,101.18-83.44,161.8-109.08,62.79-26.56,129.46-40.02,198.17-40.02s135.38,13.46,198.17,40.02c60.62,25.64,115.06,62.34,161.8,109.08,46.74,46.74,83.44,101.18,109.08,161.8,26.56,62.79,40.02,129.46,40.02,198.17s-13.47,135.38-40.02,198.17c-25.64,60.62-62.34,115.06-109.08,161.8-46.74,46.74-101.18,83.44-161.8,109.08-62.79,26.56-129.46,40.02-198.17,40.02ZM540,113.37c-113.96,0-221.09,44.38-301.67,124.96-80.58,80.58-124.96,187.72-124.96,301.67s44.38,221.09,124.96,301.67c80.58,80.58,187.72,124.96,301.67,124.96s221.09-44.38,301.67-124.96c80.58-80.58,124.96-187.71,124.96-301.67s-44.38-221.09-124.96-301.67c-80.58-80.58-187.72-124.96-301.67-124.96Z"/>
    <ellipse class="cls-5" cx="410.34" cy="419.94" rx="178.07" ry="204.36"/>
    <path class="cls-3" d="M747.2,477.32c-7.97.01-34.39.43-56.2,18.03-24.99,20.17-35.27,55.92-27.9,91.79,10.82,4.65,22.87,8.91,36.14,12.26,59.35,15.02,111.79,4.13,143.35-5.79,3.69-41.98-13.37-80.1-43.3-101.36-21.11-14.99-43.93-14.95-52.08-14.94Z"/>
    <ellipse class="cls-3" cx="749.68" cy="416.96" rx="43.74" ry="53.46" transform="translate(-14.35 26.92) rotate(-2.04)"/>
    <path class="cls-3" d="M651.43,468.32l-5.18-5.75c11.01,12.16,23.54,22.73,37.26,31.72-2.13-1.39-4.26-2.79-6.39-4.18,11.25,7.27,23.14,13.43,35.49,18.61,6.82,2.86,12.8,10.26,15.17,17.08,2.4,6.92,2.18,16.25-1.35,22.81-8.03,14.88-24.48,20.27-39.89,13.81-37.81-15.84-45.83-106.11-35.11-94.1Z"/>
    <path class="cls-2" d="M703.11,623.6c-15.24,0-29.72-5.71-40.99-16.2-11.8-10.99-18.62-25.88-19.19-41.91l-8.12-228.33c-.57-16.03,5.17-31.36,16.16-43.17s25.88-18.62,41.91-19.19l94.57-3.36c16.03-.57,31.37,5.17,43.17,16.16,11.8,10.99,18.62,25.88,19.19,41.91l8.12,228.33c1.18,33.2-24.87,61.17-58.07,62.36l-94.57,3.37c-.73.03-1.45.04-2.18.04ZM789.6,300.4c-.37,0-.75,0-1.12.02l-94.57,3.36c-8.29.3-16.01,3.84-21.72,9.97-5.71,6.14-8.7,14.08-8.4,22.37l8.12,228.33c.61,17.22,15.12,30.76,32.35,30.12l94.57-3.37c17.22-.61,30.74-15.12,30.12-32.35l-8.12-228.33c-.29-8.29-3.84-16.01-9.97-21.72-5.86-5.46-13.37-8.42-21.25-8.42Z"/>
  </g>
</svg>