<?xml version="1.0" encoding="UTF-8"?>
<svg id="Layer_1" data-name="Layer 1" xmlns="http://www.w3.org/2000/svg" xmlns:xlink="http://www.w3.org/1999/xlink" viewBox="0 0 1080 1080">
  <defs>
    <style>
      .cls-1 {
        fill: none;
      }

      .cls-2 {
        fill: #366699;
      }

      .cls-3 {
        fill: #408bbf;
      }

      .cls-4 {
        fill: #f4f6f8;
        stroke: #231f20;
        stroke-miterlimit: 10;
        stroke-width: .25px;
      }

      .cls-5 {
        fill: #3988c4;
      }

      .cls-5, .cls-6 {
        opacity: .51;
      }

      .cls-7, .cls-6 {
        fill: #3a8bc6;
      }

      .cls-8 {
        fill: #1f2833;
      }

      .cls-9 {
        fill: #50a3d1;
      }

      .cls-10 {
        fill: #deedf6;
      }

      .cls-11 {
        fill: #7fa1b2;
      }

      .cls-12 {
        clip-path: url(#clippath);
      }
    </style>
    <clipPath id="clippath">
      <circle class="cls-1" cx="539.91" cy="540" r="508.3"/>
    </clipPath>
  </defs>
  <path class="cls-9" d="M164.12,644.02c-.83.78-1.4,1.96-2.82,1.82.6-1.03,1.61-1.77,2.82-1.82Z"/>
  <path class="cls-2" d="M242.52,1075.05c-1.22-.04-2.06-.82-2.96-1.57,1.52-.6,2.06,1.02,2.96,1.57Z"/>
  <g class="cls-12">
    <path class="cls-8" d="M758.21,603.5c-11.05-10.2-22.95-17.05-36.64-22.96-44.1-19.04-89.03-26.58-132.27-45.88-4.79-1.92-10.72,2.55-15.59,3.03,1.55,4.52,1.16,9.32,1.66,13.96,1.35,12.53.56,25.51-5.81,37.32-17.05,31.6-64.51,33.29-94.57,21.26-11.9-4.77-25.78-9.76-35.64-17.59-11.81-9.38-22.47-21.33-31.02-33.7-5.28-7.64-18.14-39.91-14.56-52.42-19.46,10.22-38.74,20.39-59.4,29.76l-64.51,29.27c-22.62,9.99-56.32,28.07-89.17,60.13-12.9,12.59-31.67,31.19-47.22,60.47-22.91,43.14-25.95,85.23-25.2,111.72-.65,2.16.17,4.64-.32,6.78-3.22,13.98-1.6,23.45-4.15,35.28,3.22,5.06,6.23,9.73,10.06,14.26,2.16,2.56,5.49,7.15,7.2,10.09,8.04,13.85,18.74,25.97,29.63,37.64l12.45,13.36c21.3,20.85,50.24,46.48,87.15,72.12,147.67,102.59,430.63,210.71,548.79,90.85,79.55-80.7,69.07-249.18-4.69-409.51.93-.54,1.87-1.26,2.95-1.9,1.01-.6,1.98-1.24,2.76-2.16-8.99-23.05-23.3-44.05-41.88-61.21Z"/>
    <path class="cls-10" d="M855.04,978.33l-237.37,72.15c-2.74.83-5.64.96-8.44.39l-273.72-56.6c-8.86-1.83-14.77-10.25-13.47-19.21,15.65-108.23,31.3-216.46,46.96-324.69,1.43-9.87,10.95-16.43,20.68-14.25,96.03,21.53,192.05,43.06,288.08,64.59,2.77.62,5.66.54,8.39-.23,80.32-22.67,160.65-45.34,240.97-68.02,12.73-3.59,24.55,8,21.21,20.79-27.23,104.34-54.47,208.68-81.7,313.03-1.5,5.76-5.89,10.32-11.58,12.05Z"/>
    <path class="cls-3" d="M303.46,982.61c2.46,9.14-18.27,17.35-5.99,20.79,98.59,27.57,197.97,49.54,298.95,66.53,9.51,1.6,15.9,2.08,25.23-.83l196.85-61.44c6.44-2.01,11.39-2.71,16.78-4.58-.16,3.65-3.87,3.94-6.98,5.81-52.47,31.56-109.26,51.66-168.49,64.2-7.34,1.55-15.18,2.01-22.63,3.14-56.92,8.58-114.56,8.01-172.37-1.88-70.97-12.13-141.2-36.79-199.65-77.16,12.74-4.93,25.34-10.37,38.3-14.57Z"/>
    <path class="cls-6" d="M342.71,965.56c16.02-2.03,78.77-47.4,76.89-48.07l.1-1.44c1.98-.2,3.86-.34,6.75,0l174.18,33.71-15.41,71.84c-81.7-14.99-161.01-31.33-240.84-49.71-2.35-2.22-2.15-4.32-1.67-6.32Z"/>
    <path class="cls-7" d="M833.58,917.87c.01.98.09,1.95.25,2.92-2.31.22-4.3,1.07-5.86,2.38-3.74,3.14-4.49,8.49-3.5,11.65,1.83,5.84,11.38,10.06,22.98,7.15.9,5.28,1.31,12.2-.39,19.93-.38,1.74-.84,3.37-1.34,4.89l-205.43,60.06,15.26-70.42,164.17-48.36c2.27,3.88,9.62,8.88,13.86,9.79Z"/>
    <polygon class="cls-5" points="900.52 766.13 685.03 822.89 703.5 736.85 927.58 675.19 900.52 766.13"/>
    <path class="cls-6" d="M488.62,908.18c-44.62-9.65-89.24-19.31-133.85-28.96,13.19-65.97,26.38-131.93,39.57-197.9l139.7,31.29c-15.14,65.19-30.27,130.38-45.41,195.57Z"/>
    <path class="cls-6" d="M546.75,715l99.85,20.81c-15.96,64.3-31.92,128.6-47.88,192.89-30.89-5.63-61.78-11.26-92.68-16.89,13.57-65.6,27.13-131.21,40.7-196.81Z"/>
    <polygon class="cls-6" points="754.6 907.13 660.46 934.25 680.65 842.2 775.35 816.04 754.6 907.13"/>
    <path class="cls-6" d="M887.16,816.95c-28.41.09-57.95,64.63-47.62,66.19,1.33,2.24,4.67,2.02,5.57,4.7-7.87-.93-16.17-2.73-22.89,2l-56.04,13.81,21.13-90.99,107.77-28.94c-2.64,11.08-5.29,22.16-7.93,33.24Z"/>
    <path class="cls-4" d="M660.42,322.36c-4.59-17.83-10.02-35.35-12-54.5-16.55-6.96-28.5-18.58-37.13-34.67-35.66,34.59-96.04,35.79-143.18,25.09-4.05,23.79-10.4,58.47-35.11,69.45-4.24,1.88-6.57,4.45-6.51,8.89-6.42,1.76-22.28-8.73-29.77-9.84-1.22-.43-23.84-8.29-29.99-1.73-.51.55-2.5,2.89-4.61,5.99-1.88,2.75-3.24,5.18-4.13,6.9-12.33-44.91-10.06-79.39-7.13-98.99,3-20.01,7.71-31.42,15.91-40.87,9.51-10.97,23.03-18.28,40.22-21.99,36.45-34.79,96.41-38.86,143.73-32.89,26.57,3.35,50.5,13.62,70.54,31.34,27.4,6.84,49.8,24.31,53.24,54.15,3.69,32.06.18,65.53-14.09,93.67Z"/>
    <path class="cls-11" d="M396.72,326.79c13.89,12.46,5.66,24.93,15.84,27.77l45.18,12.6c12.88,3.59-.45,40.01,25.64,43.95,18.73,2.83,67.51,6.55,75.64-16.5l7.9-22.39c2.12-6.01,15.74-7.08,19.71-1.99,6.35,8.14,4.4,32.87,28.76,36.21,15.55,2.13,30.79.24,45.84-1.82-.77,21.56-6.27,42.72-14.07,63.51-5.22,13.93-13.49,25.52-22.17,37.39-9.59,13.11-21.81,21.98-35.69,29.14-4.79-1.92-10.72,2.55-15.59,3.03-37.1,3.62-75.36-6.03-106.2-28.25-27.97-20.16-45.64-49.05-55.74-81.68-3.7.15-6.83,2.97-9.71,3.89-11.4,1.1-22-4.65-29.22-14.83-14.43-20.37-19.93-46.49-17.54-71.55.52-5.42,8.69-17.82,11.43-20.21,8.93-7.77,21.69-5.72,29.99,1.73ZM593.13,437.94c7.87-2.28,11.31-9.22,8.5-16.05-1.88-4.57-2.8-9.32-5.06-13.29-2.09,6.67,2.93,14.11-1.25,19.48-5.93,7.63-16.93,5.94-26.23,6.72,7.03,3.26,15.73,5.55,24.04,3.14Z"/>
    <path class="cls-11" d="M660.42,322.36l-.3,6.04c-.17,3.3.77,7.27-.47,10.75-21.38,1.81-43.36,1.41-63.52,9.59-9.71,3.94-18.72,11.03-30.34,5.21-4.3-2.15-9.13-5.11-14.84-5.87-30.7-4.12-61.37-3.12-91.56,4.05-5.06-1.96-33.22-11.67-32.9-15.5-.06-4.44,2.27-7.01,6.51-8.89,24.71-10.99,31.06-45.67,35.11-69.45,47.14,10.7,107.52,9.5,143.18-25.09,8.62,16.09,20.58,27.71,37.13,34.67,1.98,19.15,7.42,36.66,12,54.5Z"/>
    <path class="cls-11" d="M575.38,551.66c1.35,12.53.56,25.51-5.81,37.32-17.05,31.6-64.51,33.29-94.57,21.26-11.9-4.77-25.78-9.76-35.64-17.59-11.8-9.38-22.47-21.33-31.02-33.7-5.28-7.64-18.14-39.91-14.56-52.42,4.1-14.35,6.49-29.13,8.65-43.9,12.82,27.24,26.63,53.99,48.69,75.6,34.88,34.17,86.9,51.21,124.26,13.45Z"/>
    <path class="cls-11" d="M573.71,537.69c1.55,4.52,1.16,9.32,1.66,13.96-37.36,37.77-89.38,20.72-124.26-13.45-22.05-21.61-35.86-48.36-48.69-75.6,1.47-10.03-1.33-20.86-.37-30.96,2.88-.92,6.01-3.74,9.71-3.89,10.1,32.64,27.77,61.53,55.74,81.68,30.84,22.22,69.1,31.87,106.2,28.25Z"/>
    <path class="cls-8" d="M426.49,336.63c-.32,3.83,27.84,13.54,32.9,15.5,30.19-7.17,60.86-8.17,91.56-4.05,5.71.76,10.54,3.72,14.84,5.87,11.62,5.82,20.63-1.27,30.34-5.21,20.16-8.18,42.14-7.78,63.52-9.59,1.24-3.48.3-7.45.47-10.75,9.2,4.7,19.36,9.17,28.14,15.19,5.65,3.87.72,12.01-.87,16.29-4.69,12.58-1.03,35.92-17.99,41.27-2.78.88-5.65,3.12-8.17,3.46-15.06,2.06-30.3,3.95-45.84,1.82-24.36-3.34-22.41-28.07-28.76-36.21-3.97-5.09-17.6-4.02-19.71,1.99l-7.9,22.39c-8.13,23.06-56.91,19.33-75.64,16.5-26.09-3.94-12.76-40.36-25.64-43.95l-45.18-12.6c-10.18-2.84-1.95-15.31-15.84-27.77,7.49,1.11,23.35,11.6,29.77,9.84ZM664.07,393.5c11.02-.77,12.65-31.31,11.12-39.58-1.1-5.96-7.65-3.65-12.29-4.35-17.95-2.71-36.82.26-55.15,4.1-16.28,3.4-6.47,29.88-1.84,38.21,7.1,12.78,46.72,7.01,58.16,1.63ZM536.77,402.57c14.42-2.86,17.94-24.08,19.12-36.18.55-5.64-3.92-9.45-9.39-10.16-21.82-2.82-43.75-2.77-65.42.89-3.62.61-7.27,3.24-7.47,6.84-.54,9.85.41,19.27,2.68,28.76,1.33,5.54,5.19,9.84,11.03,10.71,16.32,2.42,32.6,2.49,49.46-.85Z"/>
    <path class="cls-11" d="M593.13,437.94c-8.31,2.4-17.01.11-24.04-3.14,9.31-.78,20.31.92,26.23-6.72,4.17-5.37-.84-12.81,1.25-19.48,2.26,3.97,3.18,8.72,5.06,13.29,2.82,6.83-.63,13.78-8.5,16.05Z"/>
    <path class="cls-11" d="M536.77,402.57c-16.86,3.34-33.14,3.27-49.46.85-5.84-.87-9.7-5.17-11.03-10.71-2.28-9.49-3.23-18.91-2.68-28.76.2-3.59,3.85-6.23,7.47-6.84,21.68-3.66,43.6-3.72,65.42-.89,5.47.71,9.94,4.51,9.39,10.16-1.18,12.1-4.7,33.32-19.12,36.18Z"/>
    <path class="cls-11" d="M662.9,349.57l1.17,43.93c-11.44,5.38-51.06,11.15-58.16-1.63-4.63-8.33-14.44-34.8,1.84-38.21,18.34-3.83,37.2-6.81,55.15-4.1Z"/>
    <path class="cls-11" d="M389.2,871.17c-53.43-22.03-132.2.08-148.1,4.84-.67.2-1.25.37-2.04.62-27.41,8.57-39.66,23.09-54.37,31.45-7.5,4.26-18.57,8.58-34.61,9.23-3.53.48-7.09.66-10.65.49,10.66,4.63,25.81,11.19,44.18,19.08,11.67,5.01,17.5,7.51,22.09,9.43,16.3,6.81,20.55,6.42,26.72,10.61,5.65,3.84,12.9,11.01,17.85,25.69,24.69-.1,45.16-1.87,60.37-3.73,11.52-1.4,20.63-2.61,30.42-4.55,28.47-5.64,42.7-8.46,44.43-9.01,26.72-8.46,41.51-27.8,42.95-44.08,1.65-18.6-11.72-38.73-39.23-50.07Z"/>
    <path class="cls-8" d="M1048.3,540c0,280.72-227.57,508.3-508.3,508.3S31.7,820.72,31.7,540,259.28,31.7,540,31.7s508.3,227.57,508.3,508.3ZM248.75,852.96c30.76,28.32,65.49,52,103.09,70.3,108.16,52.62,233.41,57.52,345.35,13.5,111.93-44.02,200.3-132.93,243.64-245.13,78.05-202.08-6.47-430.66-197.23-533.34-190.75-102.67-428.1-47.35-553.79,129.09-125.69,176.44-100.43,418.84,58.94,565.57Z"/>
  </g>
</svg>