<?xml version="1.0" encoding="UTF-8"?>
<svg id="Layer_1" data-name="Layer 1" xmlns="http://www.w3.org/2000/svg" viewBox="0 0 1080 1080">
  <defs>
    <style>
      .cls-1 {
        fill: #609bb6;
      }

      .cls-2 {
        fill: #1f2833;
      }

      .cls-3 {
        fill: #83d4f6;
      }

      .cls-4 {
        fill: #3899cb;
      }

      .cls-5 {
        fill: #124464;
      }

      .cls-6 {
        fill: #126994;
      }
    </style>
  </defs>
  <path class="cls-6" d="M644.5,624.05c-.75,41.92-37.97,63.96-76.81,68.92-42.99,5.5-86.55-.51-126.74-16.61-26.38-10.57-55.8-28.09-69.05-53.89-1.14-2.22-1.71-4.32-1.41-6.35-1.83-1.11-4.07-1.54-6.8-.94-26.27,5.84-51.62,12.31-76.92,21.35-42.37,15.16-74.76,34.85-90.23,79.44-13.46,38.81-13.61,76.09-15.47,115.59,57.37,68.35,136.96,120.2,224.13,144.71-21.55-21.76-22.49-37.35-11.41-65.61,5.03-5.39,11.61-9.19,17.57-13.6,27.8-20.53,55.5-41.02,81.86-64.13,13.1-11.48,23.4-23.59,30.95-39.26,13.14-27.27,34.48-62.39,64.09-73.8,17.49-6.74,36.25-7.99,55.03-7.41l53.08,1.63,16.8-72.33c-22.51-7.17-45.28-14.94-68.68-17.73Z"/>
  <path class="cls-6" d="M675.12,827.52c3.85,7.28,11.07,11.43,19.75,12.37l64.97,7.09c7.92,34.19,8.32,68.94,1.4,103.35-16.27,9.31-33.01,15.24-50.74,20.97-72.36,23.37-148.63,30.18-223.46,21.76,4.68-5.07,11.38-7.74,17.13-12.48,32.87-27.11,57.99-68.76,79.64-105.51,37.84,4.05,73.25-15.14,91.31-47.56Z"/>
  <path class="cls-6" d="M778.69,847.7c5.4,7.42,2.91,30.16,13.04,39.67l-.5,23.23c-.17,8.11.28,15.59,2.1,22.88-11.22,5.54-20.54,13.87-32.09,16.85,6.92-34.41,6.52-69.16-1.4-103.35,6.23.68,12.74,1.19,18.84.72Z"/>
  <path class="cls-4" d="M843.65,898.78c-16.38,12.99-32.17,25.73-50.32,34.7-1.82-7.29-2.28-14.77-2.1-22.88l.5-23.23c13.3,12.48,34.81,13.59,51.93,11.41Z"/>
  <path class="cls-3" d="M688.5,436.43c-4.93,30.57-16.03,60.25-33.88,85.93-15.84,22.79-36.55,37.69-60.53,49.13-1.11.53-2.34.94-2.49,3.07-1.05,15.62-1.59,34.75,16.01,40.85,12.24,4.24,24.57,7.16,36.88,8.63-.75,41.92-37.97,63.96-76.81,68.92-42.99,5.5-86.55-.51-126.74-16.61-26.38-10.57-55.8-28.09-69.05-53.89-1.14-2.22-1.71-4.32-1.41-6.35,22.49-5.13,44.84-7.27,56.38-31.55,4.44-9.35,6.08-18.59,7.04-28.18,6.25-62.55,1.75-41.15-16.13-93.85-8.86-1.64-16.72-4.53-23.41-11.22-19.59-19.56-26.92-49.27-18.42-75.36,2.04-6.27,8.36-11.97,13.55-14.16,12.09-5.1,25.78,2.64,33.55,16.61,89.57,9.02,194.1-31.47,224.7-123.36,32.85,25.46,50.93,65.12,48.83,105.19-1.37,26.1-4.04,51.17-8.08,76.2Z"/>
  <path class="cls-1" d="M725.77,459.71c-6.77-58.26,23.38-90,14.91-158.13-4.97-39.97-25.02-76.25-58.06-99.15-11.12-7.71-22.81-12.51-36-13.7-16.16-16.13-35.13-27.39-56.53-35.4-71.43-26.74-152.62-10.16-202.67,49.19-16.32,19.36-27.77,40.55-36.23,64.65-13.59,38.72-33.62,74.6-63.76,102.68-14.13,13.16-25.79,26.24-31.66,44.7-9.6,30.21,2.29,61.26,30.48,76.44-.68-11.06,1.6-21.06,9.49-28.84-.86,41.49,30.86,71.52,68.43,78.91,2.23.44,4.53,1.91,7.2,1.19-.88-5.21-3.36-9.65-1.56-15.69,11.34,22.01,41.08,31.24,64.09,29.84,6.25-62.55,1.75-41.15-16.13-93.85-8.86-1.64-16.71-4.53-23.41-11.22-19.59-19.56-26.92-49.27-18.42-75.36,2.04-6.27,8.36-11.97,13.55-14.16,12.09-5.1,25.78,2.64,33.55,16.61,89.57,9.02,194.1-31.47,224.7-123.36,32.85,25.46,50.93,65.12,48.83,105.19-1.37,26.1-4.04,51.17-8.08,76.2.53,2.98,1.05,5.98,1.55,8.98-.5-3-1.01-6-1.55-8.98-4.93,30.57-16.03,60.25-33.88,85.93-15.84,22.79-36.55,37.69-60.53,49.13,22.57,8.22,64.73,12.39,78.87-13.74,1.05,3.39,1.75,6.89.34,9.23.23.02.45.03.66.02-.22,0-.44,0-.66-.02l-4.31,7.1c30.78-.48,58.26-17.62,62.65-50.9,12.43,1.99,24.27-2.17,33.57-12.38-26.78-2.42-36.71-27.53-39.45-51.1ZM681.79,561.13c-.9,1.25-1.82,2.42-2.8,3.4-.33.32-.66.62-1,.9.34-.27.68-.57,1-.9.98-.97,1.89-2.15,2.8-3.4,2.64-3.63,4.89-7.48,6.77-11.5-1.88,4.02-4.13,7.87-6.77,11.5Z"/>
  <path class="cls-3" d="M696.38,714.11l-7.92,32.55c-11.99,3.24-24.3,2.12-37.52,2.7l13.67,8.03c9.29,5.46,15.09,15.9,15.22,26.53.16,13.16,2.19,31.24-4.7,43.6-18.06,32.41-53.47,51.61-91.31,47.56-21.65,36.74-46.77,78.4-79.64,105.51-5.75,4.74-12.45,7.41-17.13,12.48-28.98-3.26-55.16-9.29-81.84-16.79-21.55-21.75-22.49-37.35-11.41-65.61,5.03-5.39,11.61-9.19,17.57-13.6,27.8-20.53,55.5-41.02,81.86-64.13,13.1-11.48,23.4-23.59,30.95-39.26,13.14-27.27,34.48-62.39,64.09-73.8,17.49-6.74,36.25-7.99,55.03-7.41l53.08,1.63Z"/>
  <path class="cls-6" d="M688.45,746.65l-8.63,37.26c-.13-10.64-5.92-21.08-15.22-26.53l-13.67-8.03c13.22-.58,25.53.55,37.52-2.7Z"/>
  <path class="cls-2" d="M794.4,866.26l-109.48-26.09c-13.73-3.27-21.74-18.26-17.8-33.31l57.43-219.49c3.94-15.05,18.39-24.69,32.12-21.42l109.48,26.09c13.73,3.27,21.74,18.26,17.8,33.31l-57.43,219.49c-3.94,15.05-18.39,24.69-32.12,21.42Z"/>
  <path class="cls-1" d="M762.68,645.14c-6.83-1.56-12.93-2.69-19.25-4.79-5.88-1.95-10.64-8.01-9.52-15.16,1.58-10.06,3.75-19.64,6.4-29.32,1.96-7.19,8.32-12.24,15.02-10.9,7.23,1.45,14.43,2.88,21.24,5.16,6.63,2.22,9.42,9.43,7.89,16.48l-5.78,26.7c-1.73,8.01-8.21,13.6-15.99,11.83ZM762.76,601.51c.7-5.14-2.56-9.64-7.28-10.06-4.72-.42-9.12,3.4-9.82,8.54-.7,5.14,2.56,9.64,7.28,10.06,4.72.42,9.12-3.4,9.82-8.54ZM780.05,605.85c.51-3.76-1.87-7.06-5.33-7.37-3.46-.31-6.67,2.49-7.19,6.25-.51,3.76,1.87,7.06,5.33,7.37s6.67-2.49,7.19-6.25ZM757.26,625.82c.71-5.17-2.57-9.7-7.33-10.13s-9.18,3.42-9.88,8.59c-.71,5.17,2.57,9.7,7.33,10.13,4.75.42,9.18-3.42,9.88-8.59Z"/>
  <path class="cls-5" d="M757.26,625.82c-.71,5.17-5.13,9.02-9.88,8.59-4.75-.42-8.03-4.96-7.33-10.13.71-5.17,5.13-9.02,9.88-8.59s8.03,4.96,7.33,10.13Z"/>
  <path class="cls-5" d="M762.76,601.51c-.7,5.14-5.1,8.96-9.82,8.54-4.72-.42-7.98-4.93-7.28-10.06.7-5.14,5.1-8.96,9.82-8.54,4.72.42,7.98,4.93,7.28,10.06Z"/>
  <path class="cls-3" d="M890.96,856.15c-14.83,15.33-30.82,29.56-47.31,42.63-17.12,2.18-38.63,1.06-51.93-11.41-10.13-9.51-7.64-32.24-13.04-39.67-2.15-2.95-4.06-5.49-7.57-8.17-11.81-9-23.48-17.38-34.53-27.45-8.91-8.12-14.45-19.82-13.14-32.05,1.71-15.96,6.96-29.64,14.04-44.01,13.39-27.21,45.1-43.61,74.76-34.36,17.85,5.57,96.47,59.72,95.58,83.69-.87,23.54-7.21,46-17.44,66.99-.59,1.2-.36,4.13.57,3.81Z"/>
  <path class="cls-2" d="M1048.3,540c0,280.72-227.57,508.3-508.3,508.3S31.7,820.72,31.7,540,259.28,31.7,540,31.7s508.3,227.57,508.3,508.3ZM248.75,852.96c30.76,28.32,65.49,52,103.09,70.3,108.16,52.62,233.41,57.52,345.35,13.5,111.93-44.02,200.3-132.93,243.64-245.13,78.05-202.08-6.47-430.66-197.23-533.34-190.75-102.67-428.1-47.35-553.79,129.09-125.69,176.44-100.43,418.84,58.94,565.57Z"/>
</svg>